<svg id="SvgjsSvg1018" width="5000px" height="4105.560032232071px" xmlns="http://www.w3.org/2000/svg" version="1.1" xmlns:xlink="http://www.w3.org/1999/xlink" xmlns:svgjs="http://svgjs.com/svgjs" viewBox="0 0 58.171875 47.765625"><defs id="SvgjsDefs1019"></defs><g id="SvgjsG1021" transform="rotate(0 29.0859375 14.3828125)"><svg xmlns="http://www.w3.org/2000/svg" xmlns:xlink="http://www.w3.org/1999/xlink" width="53.015625" viewBox="-0.7899999618530273 14.5600004196167 53.02000045776367 28.779998779296875" overflow="visible" style="overflow: visible;" transform="" version="1.1" xmlns:svgjs="http://svgjs.com/svgjs" preserveAspectRatio="none" height="28.765625" x="2.578125" y="0" fill="#000000" stroke="none"><path stroke="none" fill="#FFFFFF" d="M-0.79 39.25L0.62 32.60L8.89 32.60L8.89 32.60Q8.89 32.74 8.78 33.24L8.78 33.24L8.78 33.24Q8.67 33.75 8.54 34.45L8.54 34.45L8.54 34.45Q8.40 35.16 8.29 35.99L8.29 35.99L8.29 35.99Q8.18 36.83 8.18 37.53L8.18 37.53L8.18 37.53Q8.18 37.97 8.27 38.46L8.27 38.46L8.27 38.46Q8.36 38.94 8.58 39.36L8.58 39.36L8.58 39.36Q8.80 39.78 9.22 40.06L9.22 40.06L9.22 40.06Q9.64 40.35 10.25 40.35L10.25 40.35L10.25 40.35Q11.40 40.35 12.08 39.40L12.08 39.40L12.08 39.40Q12.76 38.46 13.29 35.95L13.29 35.95L17.73 15.00L27.28 15.00L22.97 35.20L22.97 35.20Q22.40 37.80 20.99 39.40L20.99 39.40L20.99 39.40Q19.58 41.01 17.75 41.89L17.75 41.89L17.75 41.89Q15.93 42.77 13.86 43.05L13.86 43.05L13.86 43.05Q11.79 43.34 9.90 43.34L9.90 43.34L9.90 43.34Q7.70 43.34 6.12 43.05L6.12 43.05L6.12 43.05Q4.53 42.77 3.32 42.24L3.32 42.24L3.32 42.24Q2.11 41.71 1.14 40.94L1.14 40.94L1.14 40.94Q0.18 40.17-0.79 39.25L-0.79 39.25ZM50.60 23.10L43.30 23.10L43.30 23.10Q43.43 22.44 43.43 21.30L43.43 21.30L43.43 21.30Q43.43 20.64 43.34 20.00L43.34 20.00L43.34 20.00Q43.25 19.36 43.03 18.85L43.03 18.85L43.03 18.85Q42.81 18.35 42.37 18.06L42.37 18.06L42.37 18.06Q41.93 17.78 41.23 17.78L41.23 17.78L41.23 17.78Q40.44 17.78 39.78 18.13L39.78 18.13L39.78 18.13Q39.12 18.48 38.61 19.03L38.61 19.03L38.61 19.03Q38.10 19.58 37.82 20.31L37.82 20.31L37.82 20.31Q37.53 21.03 37.53 21.82L37.53 21.82L37.53 21.82Q37.53 22.97 38.13 23.58L38.13 23.58L38.13 23.58Q38.72 24.20 39.69 24.60L39.69 24.60L39.69 24.60Q40.66 24.99 41.89 25.26L41.89 25.26L41.89 25.26Q43.12 25.52 44.44 25.87L44.44 25.87L44.44 25.87Q45.54 26.18 46.64 26.66L46.64 26.66L46.64 26.66Q47.74 27.15 48.60 27.96L48.60 27.96L48.60 27.96Q49.46 28.78 49.98 30.07L49.98 30.07L49.98 30.07Q50.51 31.37 50.51 33.31L50.51 33.31L50.51 33.31Q50.51 36.08 49.41 37.97L49.41 37.97L49.41 37.97Q48.31 39.86 46.38 41.05L46.38 41.05L46.38 41.05Q44.44 42.24 41.78 42.77L41.78 42.77L41.78 42.77Q39.12 43.30 35.99 43.30L35.99 43.30L35.99 43.30Q32.82 43.30 30.82 42.88L30.82 42.88L30.82 42.88Q28.82 42.46 27.68 41.98L27.68 41.98L27.68 41.98Q26.31 41.40 25.65 40.66L25.65 40.66L27.15 34.63L34.89 34.63L34.89 34.63Q34.85 35.02 34.80 35.71L34.80 35.71L34.80 35.71Q34.76 36.39 34.76 36.78L34.76 36.78L34.76 36.78Q34.76 37.31 34.89 37.88L34.89 37.88L34.89 37.88Q35.02 38.46 35.31 38.94L35.31 38.94L35.31 38.94Q35.60 39.42 36.12 39.73L36.12 39.73L36.12 39.73Q36.65 40.04 37.44 40.04L37.44 40.04L37.44 40.04Q38.32 40.04 39.01 39.64L39.01 39.64L39.01 39.64Q39.69 39.25 40.15 38.65L40.15 38.65L40.15 38.65Q40.61 38.06 40.85 37.33L40.85 37.33L40.85 37.33Q41.10 36.61 41.10 35.90L41.10 35.90L41.10 35.90Q41.10 34.94 40.63 34.28L40.63 34.28L40.63 34.28Q40.17 33.62 39.38 33.15L39.38 33.15L39.38 33.15Q38.59 32.69 37.55 32.36L37.55 32.36L37.55 32.36Q36.52 32.03 35.42 31.68L35.42 31.68L35.42 31.68Q34.36 31.37 33.20 30.93L33.20 30.93L33.20 30.93Q32.03 30.49 31.06 29.70L31.06 29.70L31.06 29.70Q30.10 28.91 29.46 27.70L29.46 27.70L29.46 27.70Q28.82 26.49 28.82 24.60L28.82 24.60L28.82 24.60Q28.82 21.78 30.25 19.87L30.25 19.87L30.25 19.87Q31.68 17.95 33.86 16.76L33.86 16.76L33.86 16.76Q36.04 15.58 38.63 15.07L38.63 15.07L38.63 15.07Q41.23 14.56 43.56 14.56L43.56 14.56L43.56 14.56Q46.64 14.56 48.86 15.29L48.86 15.29L48.86 15.29Q51.08 16.02 52.23 16.98L52.23 16.98L50.60 23.10Z" transform="rotate(0 25.72000026702881 28.949999809265137)"></path><defs id="SvgjsDefs1020"></defs></svg></g><g id="SvgjsG1023" transform="rotate(0 29.0859375 38.6328125)"><svg xmlns="http://www.w3.org/2000/svg" xmlns:xlink="http://www.w3.org/1999/xlink" width="58.171875" viewBox="-4.510000228881836 6.409999847412109 58.18000030517578 12.270000457763672" overflow="visible" style="overflow: visible;" transform="" version="1.1" xmlns:svgjs="http://svgjs.com/svgjs" preserveAspectRatio="none" height="12.265625" x="0" y="32.5" fill="#000000" stroke="none"><path stroke="none" fill="#FFFFFF" d="M2.68 8.18L2.91 8.29L2.91 8.29Q2.65 8.78 2.36 9.35L2.36 9.35L2.36 9.35Q2.07 9.93 1.78 10.55L1.78 10.55L1.78 10.55Q1.49 11.18 1.20 11.82L1.20 11.82L1.20 11.82Q0.91 12.46 0.63 13.08L0.63 13.08L0.63 13.08Q1.27 12.72 1.76 12.37L1.76 12.37L1.76 12.37Q2.25 12.01 2.62 11.66L2.62 11.66L2.62 11.66Q2.99 11.31 3.26 10.96L3.26 10.96L3.26 10.96Q3.53 10.61 3.75 10.27L3.75 10.27L4.00 10.46L4.00 10.46Q3.69 10.92 3.34 11.34L3.34 11.34L3.34 11.34Q2.99 11.75 2.55 12.14L2.55 12.14L2.55 12.14Q2.11 12.53 1.57 12.91L1.57 12.91L1.57 12.91Q1.03 13.30 0.35 13.70L0.35 13.70L0.35 13.70Q0.10 14.24-0.12 14.71L-0.12 14.71L-0.12 14.71Q-0.35 15.19-0.55 15.57L-0.55 15.57L-0.55 15.57Q-0.89 16.22-1.30 16.79L-1.30 16.79L-1.30 16.79Q-1.71 17.36-2.14 17.78L-2.14 17.78L-2.14 17.78Q-2.56 18.20-2.98 18.44L-2.98 18.44L-2.98 18.44Q-3.40 18.68-3.75 18.68L-3.75 18.68L-3.75 18.68Q-3.90 18.68-4.03 18.63L-4.03 18.63L-4.03 18.63Q-4.16 18.59-4.27 18.49L-4.27 18.49L-4.27 18.49Q-4.38 18.40-4.45 18.24L-4.45 18.24L-4.45 18.24Q-4.51 18.09-4.51 17.87L-4.51 17.87L-4.51 17.87Q-4.51 17.29-4.23 16.73L-4.23 16.73L-4.23 16.73Q-3.96 16.17-3.44 15.64L-3.44 15.64L-3.44 15.64Q-2.91 15.10-2.15 14.59L-2.15 14.59L-2.15 14.59Q-1.39 14.08-0.42 13.62L-0.42 13.62L-0.42 13.62Q-0.19 13.15 0 12.75L0 12.75L0 12.75Q0.19 12.35 0.39 11.96L0.39 11.96L0.39 11.96Q0.59 11.57 0.80 11.17L0.80 11.17L0.80 11.17Q1.02 10.78 1.29 10.33L1.29 10.33L1.29 10.33Q1.56 9.88 1.90 9.35L1.90 9.35L1.90 9.35Q2.24 8.83 2.68 8.18L2.68 8.18ZM-3.73 18.32L-3.73 18.32L-3.73 18.32Q-3.38 18.32-3.03 18.03L-3.03 18.03L-3.03 18.03Q-2.69 17.75-2.33 17.22L-2.33 17.22L-2.33 17.22Q-1.97 16.69-1.58 15.96L-1.58 15.96L-1.58 15.96Q-1.20 15.22-0.76 14.33L-0.76 14.33L-1.05 14.49L-1.05 14.49Q-1.76 14.87-2.33 15.34L-2.33 15.34L-2.33 15.34Q-2.91 15.80-3.30 16.28L-3.30 16.28L-3.30 16.28Q-3.70 16.75-3.91 17.18L-3.91 17.18L-3.91 17.18Q-4.12 17.61-4.12 17.90L-4.12 17.90L-4.12 17.90Q-4.12 18.08-4.03 18.20L-4.03 18.20L-4.03 18.20Q-3.94 18.32-3.73 18.32ZM3.86 7.11L3.86 7.11L3.86 7.11Q3.73 7.31 3.56 7.44L3.56 7.44L3.56 7.44Q3.40 7.57 3.25 7.57L3.25 7.57L3.25 7.57Q3.14 7.57 3.08 7.48L3.08 7.48L3.08 7.48Q3.01 7.40 3.01 7.28L3.01 7.28L3.01 7.28Q3.01 7.17 3.06 7.02L3.06 7.02L3.06 7.02Q3.11 6.87 3.20 6.73L3.20 6.73L3.20 6.73Q3.28 6.60 3.40 6.50L3.40 6.50L3.40 6.50Q3.51 6.41 3.64 6.41L3.64 6.41L3.64 6.41Q3.79 6.41 3.89 6.51L3.89 6.51L3.89 6.51Q3.99 6.62 3.99 6.75L3.99 6.75L3.99 6.75Q3.99 6.92 3.86 7.11ZM4.27 11.26L4.27 11.26L4.27 11.26Q4.26 11.34 4.25 11.42L4.25 11.42L4.25 11.42Q4.25 11.50 4.25 11.59L4.25 11.59L4.25 11.59Q4.25 11.83 4.32 12.06L4.32 12.06L4.32 12.06Q4.39 12.28 4.53 12.44L4.53 12.44L4.53 12.44Q4.67 12.61 4.88 12.71L4.88 12.71L4.88 12.71Q5.09 12.80 5.35 12.80L5.35 12.80L5.35 12.80Q6.25 12.80 7.08 12.20L7.08 12.20L7.08 12.20Q7.92 11.59 8.74 10.27L8.74 10.27L8.98 10.47L8.98 10.47Q8.52 11.22 8.06 11.74L8.06 11.74L8.06 11.74Q7.59 12.26 7.13 12.58L7.13 12.58L7.13 12.58Q6.67 12.90 6.23 13.04L6.23 13.04L6.23 13.04Q5.78 13.19 5.38 13.19L5.38 13.19L5.38 13.19Q5.09 13.19 4.76 13.10L4.76 13.10L4.76 13.10Q4.43 13.02 4.15 12.83L4.15 12.83L4.15 12.83Q3.88 12.64 3.69 12.32L3.69 12.32L3.69 12.32Q3.51 12.00 3.51 11.52L3.51 11.52L3.51 11.52Q3.51 11.01 3.69 10.53L3.69 10.53L3.69 10.53Q3.86 10.06 4.14 9.65L4.14 9.65L4.14 9.65Q4.42 9.24 4.79 8.90L4.79 8.90L4.79 8.90Q5.15 8.56 5.52 8.32L5.52 8.32L5.52 8.32Q5.89 8.08 6.25 7.95L6.25 7.95L6.25 7.95Q6.60 7.81 6.88 7.81L6.88 7.81L6.88 7.81Q7.05 7.81 7.24 7.87L7.24 7.87L7.24 7.87Q7.42 7.92 7.57 8.04L7.57 8.04L7.57 8.04Q7.72 8.16 7.81 8.35L7.81 8.35L7.81 8.35Q7.90 8.54 7.90 8.80L7.90 8.80L7.90 8.80Q7.90 9.17 7.73 9.48L7.73 9.48L7.73 9.48Q7.57 9.80 7.29 10.07L7.29 10.07L7.29 10.07Q7.01 10.34 6.64 10.56L6.64 10.56L6.64 10.56Q6.27 10.77 5.87 10.92L5.87 10.92L5.87 10.92Q5.46 11.07 5.05 11.16L5.05 11.16L5.05 11.16Q4.64 11.25 4.27 11.26ZM4.33 10.96L4.33 10.96L4.33 10.96Q4.79 10.92 5.19 10.77L5.19 10.77L5.19 10.77Q5.59 10.63 5.93 10.42L5.93 10.42L5.93 10.42Q6.26 10.21 6.52 9.97L6.52 9.97L6.52 9.97Q6.79 9.72 6.97 9.47L6.97 9.47L6.97 9.47Q7.14 9.21 7.24 8.98L7.24 8.98L7.24 8.98Q7.33 8.75 7.33 8.57L7.33 8.57L7.33 8.57Q7.33 8.38 7.24 8.27L7.24 8.27L7.24 8.27Q7.14 8.16 7 8.16L7 8.16L7 8.16Q6.70 8.16 6.32 8.38L6.32 8.38L6.32 8.38Q5.95 8.59 5.57 8.97L5.57 8.97L5.57 8.97Q5.20 9.35 4.86 9.86L4.86 9.86L4.86 9.86Q4.53 10.38 4.33 10.96ZM9.26 11.26L9.26 11.26L9.26 11.26Q9.25 11.34 9.24 11.42L9.24 11.42L9.24 11.42Q9.24 11.50 9.24 11.59L9.24 11.59L9.24 11.59Q9.24 11.83 9.31 12.06L9.31 12.06L9.31 12.06Q9.38 12.28 9.52 12.44L9.52 12.44L9.52 12.44Q9.66 12.61 9.87 12.71L9.87 12.71L9.87 12.71Q10.08 12.80 10.34 12.80L10.34 12.80L10.34 12.80Q11.24 12.80 12.07 12.20L12.07 12.20L12.07 12.20Q12.91 11.59 13.73 10.27L13.73 10.27L13.97 10.47L13.97 10.47Q13.51 11.22 13.05 11.74L13.05 11.74L13.05 11.74Q12.58 12.26 12.12 12.58L12.12 12.58L12.12 12.58Q11.66 12.90 11.22 13.04L11.22 13.04L11.22 13.04Q10.77 13.19 10.37 13.19L10.37 13.19L10.37 13.19Q10.08 13.19 9.75 13.10L9.75 13.10L9.75 13.10Q9.42 13.02 9.14 12.83L9.14 12.83L9.14 12.83Q8.87 12.64 8.69 12.32L8.69 12.32L8.69 12.32Q8.50 12.00 8.50 11.52L8.50 11.52L8.50 11.52Q8.50 11.01 8.68 10.53L8.68 10.53L8.68 10.53Q8.85 10.06 9.13 9.65L9.13 9.65L9.13 9.65Q9.41 9.24 9.78 8.90L9.78 8.90L9.78 8.90Q10.14 8.56 10.51 8.32L10.51 8.32L10.51 8.32Q10.88 8.08 11.24 7.95L11.24 7.95L11.24 7.95Q11.59 7.81 11.87 7.81L11.87 7.81L11.87 7.81Q12.04 7.81 12.23 7.87L12.23 7.87L12.23 7.87Q12.41 7.92 12.56 8.04L12.56 8.04L12.56 8.04Q12.71 8.16 12.80 8.35L12.80 8.35L12.80 8.35Q12.89 8.54 12.89 8.80L12.89 8.80L12.89 8.80Q12.89 9.17 12.73 9.48L12.73 9.48L12.73 9.48Q12.56 9.80 12.28 10.07L12.28 10.07L12.28 10.07Q12.00 10.34 11.63 10.56L11.63 10.56L11.63 10.56Q11.26 10.77 10.86 10.92L10.86 10.92L10.86 10.92Q10.45 11.07 10.04 11.16L10.04 11.16L10.04 11.16Q9.63 11.25 9.26 11.26ZM9.32 10.96L9.32 10.96L9.32 10.96Q9.78 10.92 10.18 10.77L10.18 10.77L10.18 10.77Q10.58 10.63 10.92 10.42L10.92 10.42L10.92 10.42Q11.25 10.21 11.52 9.97L11.52 9.97L11.52 9.97Q11.78 9.72 11.96 9.47L11.96 9.47L11.96 9.47Q12.13 9.21 12.23 8.98L12.23 8.98L12.23 8.98Q12.33 8.75 12.33 8.57L12.33 8.57L12.33 8.57Q12.33 8.38 12.23 8.27L12.23 8.27L12.23 8.27Q12.13 8.16 11.99 8.16L11.99 8.16L11.99 8.16Q11.69 8.16 11.31 8.38L11.31 8.38L11.31 8.38Q10.94 8.59 10.56 8.97L10.56 8.97L10.56 8.97Q10.19 9.35 9.85 9.86L9.85 9.86L9.85 9.86Q9.52 10.38 9.32 10.96ZM15.88 6.76L16.12 6.86L14.57 9.97L14.57 9.97Q14.98 9.45 15.43 8.99L15.43 8.99L15.43 8.99Q15.88 8.54 16.35 8.25L16.35 8.25L16.35 8.25Q16.70 8.05 16.97 7.97L16.97 7.97L16.97 7.97Q17.23 7.89 17.47 7.89L17.47 7.89L17.47 7.89Q17.71 7.89 17.86 7.96L17.86 7.96L17.86 7.96Q18.01 8.04 18.09 8.16L18.09 8.16L18.09 8.16Q18.18 8.29 18.22 8.43L18.22 8.43L18.22 8.43Q18.25 8.58 18.25 8.72L18.25 8.72L18.25 8.72Q18.25 9.04 18.14 9.36L18.14 9.36L18.14 9.36Q18.03 9.67 17.87 9.98L17.87 9.98L17.87 9.98Q17.71 10.29 17.52 10.59L17.52 10.59L17.52 10.59Q17.33 10.88 17.17 11.17L17.17 11.17L17.17 11.17Q17.01 11.45 16.90 11.72L16.90 11.72L16.90 11.72Q16.79 12.00 16.79 12.25L16.79 12.25L16.79 12.25Q16.79 12.37 16.82 12.45L16.82 12.45L16.82 12.45Q16.85 12.53 16.90 12.57L16.90 12.57L16.90 12.57Q16.95 12.62 17.01 12.63L17.01 12.63L17.01 12.63Q17.08 12.65 17.14 12.65L17.14 12.65L17.14 12.65Q17.27 12.65 17.44 12.53L17.44 12.53L17.44 12.53Q17.62 12.41 17.81 12.21L17.81 12.21L17.81 12.21Q18.01 12.02 18.22 11.77L18.22 11.77L18.22 11.77Q18.43 11.52 18.62 11.26L18.62 11.26L18.62 11.26Q18.82 10.99 18.99 10.74L18.99 10.74L18.99 10.74Q19.16 10.48 19.29 10.27L19.29 10.27L19.54 10.46L19.54 10.46Q19.47 10.61 19.32 10.86L19.32 10.86L19.32 10.86Q19.17 11.10 18.98 11.39L18.98 11.39L18.98 11.39Q18.78 11.67 18.54 11.95L18.54 11.95L18.54 11.95Q18.31 12.24 18.05 12.47L18.05 12.47L18.05 12.47Q17.79 12.70 17.52 12.85L17.52 12.85L17.52 12.85Q17.25 13.00 16.99 13.00L16.99 13.00L16.99 13.00Q16.81 13.00 16.65 12.94L16.65 12.94L16.65 12.94Q16.48 12.89 16.36 12.77L16.36 12.77L16.36 12.77Q16.24 12.66 16.16 12.48L16.16 12.48L16.16 12.48Q16.08 12.30 16.08 12.06L16.08 12.06L16.08 12.06Q16.08 11.76 16.20 11.38L16.20 11.38L16.20 11.38Q16.32 11.00 16.67 10.51L16.67 10.51L16.67 10.51Q16.95 10.10 17.15 9.83L17.15 9.83L17.15 9.83Q17.36 9.56 17.49 9.36L17.49 9.36L17.49 9.36Q17.62 9.16 17.68 8.99L17.68 8.99L17.68 8.99Q17.75 8.83 17.75 8.62L17.75 8.62L17.75 8.62Q17.75 8.44 17.64 8.35L17.64 8.35L17.64 8.35Q17.54 8.25 17.41 8.25L17.41 8.25L17.41 8.25Q17.06 8.25 16.69 8.45L16.69 8.45L16.69 8.45Q16.32 8.65 15.96 8.97L15.96 8.97L15.96 8.97Q15.60 9.30 15.25 9.71L15.25 9.71L15.25 9.71Q14.90 10.13 14.59 10.56L14.59 10.56L14.59 10.56Q14.28 11.00 14.02 11.42L14.02 11.42L14.02 11.42Q13.75 11.83 13.56 12.16L13.56 12.16L13.56 12.16Q13.37 12.50 13.27 12.70L13.27 12.70L13.27 12.70Q13.16 12.90 13.15 12.91L13.15 12.91L13.15 12.91Q12.87 13.49 12.59 14.04L12.59 14.04L12.59 14.04Q12.32 14.59 12.08 15.09L12.08 15.09L12.08 15.09Q11.83 15.58 11.63 15.99L11.63 15.99L11.63 15.99Q11.42 16.39 11.27 16.69L11.27 16.69L11.27 16.69Q11.12 16.99 11.04 17.17L11.04 17.17L11.04 17.17Q10.95 17.34 10.94 17.34L10.94 17.34L10.20 16.92L10.20 16.92Q10.76 15.86 11.21 15.00L11.21 15.00L11.21 15.00Q11.66 14.15 12.07 13.40L12.07 13.40L12.07 13.40Q12.48 12.64 12.88 11.93L12.88 11.93L12.88 11.93Q13.28 11.22 13.72 10.44L13.72 10.44L13.72 10.44Q14.16 9.67 14.69 8.77L14.69 8.77L14.69 8.77Q15.21 7.88 15.88 6.76L15.88 6.76ZM25.59 7.45L25.59 7.45L25.59 7.45Q25.55 7.51 25.50 7.58L25.50 7.58L25.50 7.58Q25.44 7.66 25.39 7.75L25.39 7.75L25.39 7.75Q25.34 7.84 25.30 7.96L25.30 7.96L25.30 7.96Q25.27 8.09 25.27 8.26L25.27 8.26L25.27 8.26Q25.27 8.40 25.34 8.65L25.34 8.65L25.34 8.65Q25.41 8.89 25.49 9.21L25.49 9.21L25.49 9.21Q25.57 9.53 25.65 9.90L25.65 9.90L25.65 9.90Q25.72 10.27 25.72 10.67L25.72 10.67L25.72 10.67Q25.72 11.25 25.56 11.70L25.56 11.70L25.56 11.70Q25.40 12.14 25.14 12.46L25.14 12.46L25.14 12.46Q25.68 12.17 26.19 11.63L26.19 11.63L26.19 11.63Q26.70 11.09 27.22 10.27L27.22 10.27L27.45 10.47L27.45 10.47Q27.16 10.96 26.79 11.43L26.79 11.43L26.79 11.43Q26.41 11.91 25.97 12.29L25.97 12.29L25.97 12.29Q25.53 12.67 25.01 12.90L25.01 12.90L25.01 12.90Q24.50 13.14 23.93 13.14L23.93 13.14L23.93 13.14Q23.41 13.14 23.06 12.90L23.06 12.90L23.06 12.90Q22.71 12.65 22.63 12.17L22.63 12.17L22.87 12.12L22.87 12.12Q22.87 12.16 22.91 12.25L22.91 12.25L22.91 12.25Q22.95 12.35 23.03 12.43L23.03 12.43L23.03 12.43Q23.11 12.52 23.25 12.59L23.25 12.59L23.25 12.59Q23.39 12.66 23.60 12.66L23.60 12.66L23.60 12.66Q23.87 12.66 24.08 12.53L24.08 12.53L24.08 12.53Q24.29 12.41 24.45 12.20L24.45 12.20L24.45 12.20Q24.61 12.00 24.72 11.73L24.72 11.73L24.72 11.73Q24.83 11.47 24.89 11.19L24.89 11.19L24.89 11.19Q24.96 10.91 24.99 10.64L24.99 10.64L24.99 10.64Q25.01 10.38 25.01 10.16L25.01 10.16L25.01 10.16Q25.01 9.94 25.00 9.67L25.00 9.67L25.00 9.67Q24.98 9.41 24.96 9.16L24.96 9.16L24.96 9.16Q24.94 8.92 24.92 8.74L24.92 8.74L24.92 8.74Q24.90 8.56 24.90 8.50L24.90 8.50L24.90 8.49L24.90 8.49Q24.81 8.59 24.69 8.77L24.69 8.77L24.69 8.77Q24.57 8.96 24.43 9.17L24.43 9.17L24.43 9.17Q24.29 9.39 24.15 9.62L24.15 9.62L24.15 9.62Q24.01 9.84 23.90 10.03L23.90 10.03L23.90 10.03Q23.78 10.21 23.71 10.33L23.71 10.33L23.71 10.33Q23.64 10.45 23.64 10.46L23.64 10.46L23.39 10.27L23.39 10.27Q23.40 10.26 23.56 9.97L23.56 9.97L23.56 9.97Q23.73 9.69 24.00 9.25L24.00 9.25L24.00 9.25Q24.27 8.80 24.61 8.27L24.61 8.27L24.61 8.27Q24.95 7.73 25.31 7.23L25.31 7.23L25.59 7.45ZM27.74 11.26L27.74 11.26L27.74 11.26Q27.73 11.34 27.72 11.42L27.72 11.42L27.72 11.42Q27.71 11.50 27.71 11.59L27.71 11.59L27.71 11.59Q27.71 11.83 27.78 12.06L27.78 12.06L27.78 12.06Q27.86 12.28 28.00 12.44L28.00 12.44L28.00 12.44Q28.14 12.61 28.35 12.71L28.35 12.71L28.35 12.71Q28.55 12.80 28.82 12.80L28.82 12.80L28.82 12.80Q29.72 12.80 30.55 12.20L30.55 12.20L30.55 12.20Q31.38 11.59 32.21 10.27L32.21 10.27L32.44 10.47L32.44 10.47Q31.99 11.22 31.53 11.74L31.53 11.74L31.53 11.74Q31.06 12.26 30.60 12.58L30.60 12.58L30.60 12.58Q30.14 12.90 29.70 13.04L29.70 13.04L29.70 13.04Q29.25 13.19 28.85 13.19L28.85 13.19L28.85 13.19Q28.55 13.19 28.23 13.10L28.23 13.10L28.23 13.10Q27.90 13.02 27.62 12.83L27.62 12.83L27.62 12.83Q27.34 12.64 27.16 12.32L27.16 12.32L27.16 12.32Q26.98 12.00 26.98 11.52L26.98 11.52L26.98 11.52Q26.98 11.01 27.16 10.53L27.16 10.53L27.16 10.53Q27.33 10.06 27.61 9.65L27.61 9.65L27.61 9.65Q27.89 9.24 28.25 8.90L28.25 8.90L28.25 8.90Q28.62 8.56 28.99 8.32L28.99 8.32L28.99 8.32Q29.36 8.08 29.72 7.95L29.72 7.95L29.72 7.95Q30.07 7.81 30.34 7.81L30.34 7.81L30.34 7.81Q30.52 7.81 30.71 7.87L30.71 7.87L30.71 7.87Q30.89 7.92 31.04 8.04L31.04 8.04L31.04 8.04Q31.19 8.16 31.28 8.35L31.28 8.35L31.28 8.35Q31.37 8.54 31.37 8.80L31.37 8.80L31.37 8.80Q31.37 9.17 31.20 9.48L31.20 9.48L31.20 9.48Q31.04 9.80 30.75 10.07L30.75 10.07L30.75 10.07Q30.47 10.34 30.11 10.56L30.11 10.56L30.11 10.56Q29.74 10.77 29.33 10.92L29.33 10.92L29.33 10.92Q28.93 11.07 28.52 11.16L28.52 11.16L28.52 11.16Q28.11 11.25 27.74 11.26ZM27.79 10.96L27.79 10.96L27.79 10.96Q28.25 10.92 28.66 10.77L28.66 10.77L28.66 10.77Q29.06 10.63 29.39 10.42L29.39 10.42L29.39 10.42Q29.73 10.21 29.99 9.97L29.99 9.97L29.99 9.97Q30.26 9.72 30.43 9.47L30.43 9.47L30.43 9.47Q30.61 9.21 30.71 8.98L30.71 8.98L30.71 8.98Q30.80 8.75 30.80 8.57L30.80 8.57L30.80 8.57Q30.80 8.38 30.70 8.27L30.70 8.27L30.70 8.27Q30.60 8.16 30.47 8.16L30.47 8.16L30.47 8.16Q30.17 8.16 29.79 8.38L29.79 8.38L29.79 8.38Q29.42 8.59 29.04 8.97L29.04 8.97L29.04 8.97Q28.66 9.35 28.33 9.86L28.33 9.86L28.33 9.86Q28 10.38 27.79 10.96ZM36.27 10.27L36.52 10.46L36.52 10.46Q36.42 10.61 36.28 10.87L36.28 10.87L36.28 10.87Q36.14 11.12 35.96 11.42L35.96 11.42L35.96 11.42Q35.77 11.72 35.55 12.02L35.55 12.02L35.55 12.02Q35.33 12.33 35.06 12.58L35.06 12.58L35.06 12.58Q34.80 12.82 34.49 12.98L34.49 12.98L34.49 12.98Q34.19 13.14 33.84 13.14L33.84 13.14L33.84 13.14Q33.65 13.14 33.48 13.08L33.48 13.08L33.48 13.08Q33.30 13.02 33.17 12.90L33.17 12.90L33.17 12.90Q33.04 12.78 32.97 12.60L32.97 12.60L32.97 12.60Q32.89 12.41 32.89 12.17L32.89 12.17L32.89 12.17Q32.89 11.83 33.03 11.47L33.03 11.47L33.03 11.47Q33.16 11.10 33.34 10.76L33.34 10.76L33.34 10.76Q33.52 10.42 33.69 10.13L33.69 10.13L33.69 10.13Q33.87 9.85 33.95 9.68L33.95 9.68L33.95 9.68Q34.04 9.51 34.04 9.39L34.04 9.39L34.04 9.39Q34.04 9.30 33.98 9.23L33.98 9.23L33.98 9.23Q33.92 9.16 33.83 9.10L33.83 9.10L33.83 9.10Q33.75 9.03 33.66 8.96L33.66 8.96L33.66 8.96Q33.56 8.89 33.50 8.78L33.50 8.78L33.50 8.78Q33.33 9.06 33.15 9.34L33.15 9.34L33.15 9.34Q33.00 9.58 32.81 9.87L32.81 9.87L32.81 9.87Q32.63 10.17 32.46 10.46L32.46 10.46L32.21 10.27L33.67 7.98L33.87 8.08L33.87 8.08Q33.86 8.12 33.83 8.21L33.83 8.21L33.83 8.21Q33.80 8.30 33.80 8.40L33.80 8.40L33.80 8.40Q33.80 8.48 33.82 8.55L33.82 8.55L33.82 8.55Q33.84 8.62 33.92 8.68L33.92 8.68L33.92 8.68Q34.19 8.93 34.35 9.06L34.35 9.06L34.35 9.06Q34.51 9.19 34.58 9.27L34.58 9.27L34.58 9.27Q34.65 9.35 34.67 9.40L34.67 9.40L34.67 9.40Q34.69 9.45 34.69 9.54L34.69 9.54L34.69 9.54Q34.69 9.62 34.66 9.73L34.66 9.73L34.66 9.73Q34.63 9.85 34.57 10.01L34.57 10.01L34.57 10.01Q34.50 10.18 34.39 10.40L34.39 10.40L34.39 10.40Q34.28 10.62 34.10 10.92L34.10 10.92L34.10 10.92Q34.00 11.09 33.90 11.28L33.90 11.28L33.90 11.28Q33.80 11.46 33.73 11.64L33.73 11.64L33.73 11.64Q33.65 11.83 33.60 12.01L33.60 12.01L33.60 12.01Q33.55 12.20 33.55 12.37L33.55 12.37L33.55 12.37Q33.55 12.50 33.59 12.57L33.59 12.57L33.59 12.57Q33.63 12.65 33.69 12.69L33.69 12.69L33.69 12.69Q33.75 12.74 33.82 12.75L33.82 12.75L33.82 12.75Q33.89 12.76 33.96 12.76L33.96 12.76L33.96 12.76Q34.19 12.76 34.41 12.63L34.41 12.63L34.41 12.63Q34.63 12.50 34.85 12.28L34.85 12.28L34.85 12.28Q35.06 12.07 35.26 11.80L35.26 11.80L35.26 11.80Q35.46 11.53 35.65 11.25L35.65 11.25L35.65 11.25Q35.83 10.97 35.99 10.72L35.99 10.72L35.99 10.72Q36.15 10.46 36.27 10.27L36.27 10.27ZM39.89 10.20L39.89 10.20L39.89 10.20Q39.78 9.96 39.72 9.70L39.72 9.70L39.72 9.70Q39.66 9.44 39.66 9.16L39.66 9.16L39.66 9.16Q39.66 8.80 39.73 8.55L39.73 8.55L39.73 8.55Q39.79 8.30 39.89 8.15L39.89 8.15L39.89 8.15Q39.98 7.99 40.10 7.92L40.10 7.92L40.10 7.92Q40.21 7.85 40.31 7.85L40.31 7.85L40.31 7.85Q40.40 7.85 40.48 7.89L40.48 7.89L40.48 7.89Q40.56 7.93 40.62 8.02L40.62 8.02L40.62 8.02Q40.68 8.11 40.72 8.25L40.72 8.25L40.72 8.25Q40.76 8.39 40.76 8.61L40.76 8.61L40.76 8.61Q40.76 9.10 40.56 9.62L40.56 9.62L40.56 9.62Q40.37 10.14 40.04 10.62L40.04 10.62L40.04 10.62Q39.72 11.11 39.29 11.54L39.29 11.54L39.29 11.54Q38.87 11.97 38.42 12.30L38.42 12.30L38.42 12.30Q38.29 12.39 38.13 12.49L38.13 12.49L38.13 12.49Q37.97 12.58 37.79 12.67L37.79 12.67L37.79 12.67Q37.61 12.76 37.42 12.81L37.42 12.81L37.42 12.81Q37.22 12.87 37.04 12.87L37.04 12.87L37.04 12.87Q36.58 12.87 36.29 12.53L36.29 12.53L36.29 12.53Q36.00 12.18 36.00 11.56L36.00 11.56L36.00 11.56Q36.00 11.27 36.08 10.94L36.08 10.94L36.08 10.94Q36.16 10.62 36.31 10.27L36.31 10.27L36.31 10.27Q36.45 9.93 36.64 9.58L36.64 9.58L36.64 9.58Q36.83 9.23 37.05 8.91L37.05 8.91L37.05 8.91Q37.26 8.59 37.50 8.31L37.50 8.31L37.50 8.31Q37.73 8.03 37.95 7.82L37.95 7.82L38.25 8.02L38.25 8.02Q37.86 8.62 37.57 9.18L37.57 9.18L37.57 9.18Q37.28 9.75 37.10 10.25L37.10 10.25L37.10 10.25Q36.91 10.75 36.81 11.16L36.81 11.16L36.81 11.16Q36.72 11.57 36.72 11.87L36.72 11.87L36.72 11.87Q36.72 12.22 36.81 12.37L36.81 12.37L36.81 12.37Q36.91 12.52 37.08 12.52L37.08 12.52L37.08 12.52Q37.24 12.52 37.53 12.40L37.53 12.40L37.53 12.40Q37.82 12.28 38.21 12.01L38.21 12.01L38.21 12.01Q38.69 11.67 39.13 11.20L39.13 11.20L39.13 11.20Q39.57 10.73 39.89 10.20ZM40.11 9.86L40.11 9.86L40.11 9.86Q40.24 9.55 40.32 9.22L40.32 9.22L40.32 9.22Q40.40 8.89 40.40 8.59L40.40 8.59L40.40 8.59Q40.40 8.39 40.37 8.30L40.37 8.30L40.37 8.30Q40.33 8.21 40.31 8.20L40.31 8.20L40.31 8.20Q40.30 8.20 40.26 8.24L40.26 8.24L40.26 8.24Q40.21 8.28 40.15 8.38L40.15 8.38L40.15 8.38Q40.09 8.49 40.05 8.68L40.05 8.68L40.05 8.68Q40.00 8.87 40.00 9.16L40.00 9.16L40.00 9.16Q40.00 9.33 40.03 9.52L40.03 9.52L40.03 9.52Q40.05 9.71 40.11 9.86ZM44.24 6.75L44.24 6.75L44.24 6.75Q44.24 6.89 44.17 7.04L44.17 7.04L44.17 7.04Q44.10 7.18 43.99 7.30L43.99 7.30L43.99 7.30Q43.89 7.42 43.76 7.49L43.76 7.49L43.76 7.49Q43.63 7.57 43.50 7.57L43.50 7.57L43.50 7.57Q43.38 7.57 43.32 7.48L43.32 7.48L43.32 7.48Q43.26 7.40 43.26 7.27L43.26 7.27L43.26 7.27Q43.26 7.16 43.30 7.01L43.30 7.01L43.30 7.01Q43.34 6.86 43.42 6.73L43.42 6.73L43.42 6.73Q43.50 6.60 43.62 6.50L43.62 6.50L43.62 6.50Q43.74 6.41 43.89 6.41L43.89 6.41L43.89 6.41Q44.03 6.41 44.13 6.51L44.13 6.51L44.13 6.51Q44.24 6.62 44.24 6.75ZM42.74 8.18L42.96 8.27L42.96 8.27Q42.87 8.45 42.71 8.74L42.71 8.74L42.71 8.74Q42.55 9.03 42.36 9.38L42.36 9.38L42.36 9.38Q42.18 9.72 41.99 10.10L41.99 10.10L41.99 10.10Q41.79 10.48 41.64 10.84L41.64 10.84L41.64 10.84Q41.49 11.20 41.39 11.51L41.39 11.51L41.39 11.51Q41.30 11.83 41.30 12.04L41.30 12.04L41.30 12.04Q41.30 12.24 41.38 12.31L41.38 12.31L41.38 12.31Q41.46 12.39 41.61 12.39L41.61 12.39L41.61 12.39Q41.89 12.39 42.16 12.20L42.16 12.20L42.16 12.20Q42.42 12.02 42.69 11.72L42.69 11.72L42.69 11.72Q42.95 11.42 43.20 11.04L43.20 11.04L43.20 11.04Q43.46 10.66 43.71 10.27L43.71 10.27L43.96 10.46L43.96 10.46Q43.76 10.81 43.51 11.22L43.51 11.22L43.51 11.22Q43.26 11.62 42.95 11.97L42.95 11.97L42.95 11.97Q42.64 12.31 42.27 12.54L42.27 12.54L42.27 12.54Q41.90 12.76 41.47 12.76L41.47 12.76L41.47 12.76Q41.06 12.76 40.84 12.52L40.84 12.52L40.84 12.52Q40.62 12.27 40.62 11.88L40.62 11.88L40.62 11.88Q40.62 11.42 40.83 10.92L40.83 10.92L40.83 10.92Q41.04 10.42 41.36 9.94L41.36 9.94L41.36 9.94Q41.68 9.45 42.05 9.00L42.05 9.00L42.05 9.00Q42.42 8.54 42.74 8.18L42.74 8.18ZM47.56 8.67L47.56 8.67L47.56 8.67Q47.61 8.56 47.61 8.44L47.61 8.44L47.61 8.44Q47.61 8.22 47.43 8.09L47.43 8.09L47.43 8.09Q47.26 7.96 46.88 7.96L46.88 7.96L46.88 7.96Q46.57 7.96 46.26 8.10L46.26 8.10L46.26 8.10Q45.95 8.23 45.66 8.46L45.66 8.46L45.66 8.46Q45.38 8.70 45.13 9.02L45.13 9.02L45.13 9.02Q44.88 9.34 44.70 9.71L44.70 9.71L44.70 9.71Q44.52 10.09 44.41 10.51L44.41 10.51L44.41 10.51Q44.30 10.93 44.30 11.35L44.30 11.35L44.30 11.35Q44.30 11.70 44.38 11.94L44.38 11.94L44.38 11.94Q44.45 12.17 44.59 12.33L44.59 12.33L44.59 12.33Q44.73 12.48 44.92 12.54L44.92 12.54L44.92 12.54Q45.11 12.61 45.35 12.61L45.35 12.61L45.35 12.61Q45.82 12.61 46.27 12.39L46.27 12.39L46.27 12.39Q46.71 12.18 47.11 11.84L47.11 11.84L47.11 11.84Q47.51 11.50 47.85 11.09L47.85 11.09L47.85 11.09Q48.19 10.67 48.45 10.27L48.45 10.27L48.70 10.46L48.70 10.46Q48.33 11.08 47.91 11.55L47.91 11.55L47.91 11.55Q47.50 12.02 47.06 12.33L47.06 12.33L47.06 12.33Q46.62 12.65 46.17 12.80L46.17 12.80L46.17 12.80Q45.72 12.96 45.29 12.96L45.29 12.96L45.29 12.96Q44.95 12.96 44.64 12.86L44.64 12.86L44.64 12.86Q44.32 12.76 44.09 12.55L44.09 12.55L44.09 12.55Q43.85 12.34 43.71 12.01L43.71 12.01L43.71 12.01Q43.57 11.68 43.57 11.23L43.57 11.23L43.57 11.23Q43.57 10.70 43.73 10.22L43.73 10.22L43.73 10.22Q43.88 9.75 44.14 9.34L44.14 9.34L44.14 9.34Q44.39 8.94 44.73 8.62L44.73 8.62L44.73 8.62Q45.06 8.29 45.43 8.07L45.43 8.07L45.43 8.07Q45.79 7.84 46.17 7.72L46.17 7.72L46.17 7.72Q46.54 7.60 46.87 7.60L46.87 7.60L46.87 7.60Q47.20 7.60 47.41 7.69L47.41 7.69L47.41 7.69Q47.63 7.79 47.75 7.92L47.75 7.92L47.75 7.92Q47.87 8.05 47.92 8.19L47.92 8.19L47.92 8.19Q47.96 8.33 47.96 8.44L47.96 8.44L47.96 8.44Q47.96 8.60 47.91 8.78L47.91 8.78L47.91 8.78Q47.87 8.97 47.78 9.12L47.78 9.12L47.78 9.12Q47.69 9.28 47.57 9.38L47.57 9.38L47.57 9.38Q47.44 9.48 47.29 9.48L47.29 9.48L47.29 9.48Q47.14 9.48 47.03 9.38L47.03 9.38L47.03 9.38Q46.92 9.28 46.92 9.13L46.92 9.13L46.92 9.13Q46.92 9.13 46.93 9.05L46.93 9.05L46.93 9.05Q46.94 8.98 47.00 8.89L47.00 8.89L47.00 8.89Q47.05 8.80 47.16 8.74L47.16 8.74L47.16 8.74Q47.28 8.67 47.48 8.67L47.48 8.67L47.56 8.67ZM48.97 11.26L48.97 11.26L48.97 11.26Q48.95 11.34 48.95 11.42L48.95 11.42L48.95 11.42Q48.94 11.50 48.94 11.59L48.94 11.59L48.94 11.59Q48.94 11.83 49.01 12.06L49.01 12.06L49.01 12.06Q49.08 12.28 49.22 12.44L49.22 12.44L49.22 12.44Q49.36 12.61 49.57 12.71L49.57 12.71L49.57 12.71Q49.78 12.80 50.05 12.80L50.05 12.80L50.05 12.80Q50.94 12.80 51.78 12.20L51.78 12.20L51.78 12.20Q52.61 11.59 53.44 10.27L53.44 10.27L53.67 10.47L53.67 10.47Q53.22 11.22 52.75 11.74L52.75 11.74L52.75 11.74Q52.29 12.26 51.83 12.58L51.83 12.58L51.83 12.58Q51.37 12.90 50.92 13.04L50.92 13.04L50.92 13.04Q50.48 13.19 50.07 13.19L50.07 13.19L50.07 13.19Q49.78 13.19 49.45 13.10L49.45 13.10L49.45 13.10Q49.12 13.02 48.85 12.83L48.85 12.83L48.85 12.83Q48.57 12.64 48.39 12.32L48.39 12.32L48.39 12.32Q48.21 12.00 48.21 11.52L48.21 11.52L48.21 11.52Q48.21 11.01 48.38 10.53L48.38 10.53L48.38 10.53Q48.56 10.06 48.84 9.65L48.84 9.65L48.84 9.65Q49.12 9.24 49.48 8.90L49.48 8.90L49.48 8.90Q49.84 8.56 50.21 8.32L50.21 8.32L50.21 8.32Q50.59 8.08 50.94 7.95L50.94 7.95L50.94 7.95Q51.30 7.81 51.57 7.81L51.57 7.81L51.57 7.81Q51.75 7.81 51.93 7.87L51.93 7.87L51.93 7.87Q52.12 7.92 52.26 8.04L52.26 8.04L52.26 8.04Q52.41 8.16 52.50 8.35L52.50 8.35L52.50 8.35Q52.60 8.54 52.60 8.80L52.60 8.80L52.60 8.80Q52.60 9.17 52.43 9.48L52.43 9.48L52.43 9.48Q52.26 9.80 51.98 10.07L51.98 10.07L51.98 10.07Q51.70 10.34 51.33 10.56L51.33 10.56L51.33 10.56Q50.96 10.77 50.56 10.92L50.56 10.92L50.56 10.92Q50.16 11.07 49.75 11.16L49.75 11.16L49.75 11.16Q49.33 11.25 48.97 11.26ZM49.02 10.96L49.02 10.96L49.02 10.96Q49.48 10.92 49.88 10.77L49.88 10.77L49.88 10.77Q50.29 10.63 50.62 10.42L50.62 10.42L50.62 10.42Q50.96 10.21 51.22 9.97L51.22 9.97L51.22 9.97Q51.48 9.72 51.66 9.47L51.66 9.47L51.66 9.47Q51.84 9.21 51.93 8.98L51.93 8.98L51.93 8.98Q52.03 8.75 52.03 8.57L52.03 8.57L52.03 8.57Q52.03 8.38 51.93 8.27L51.93 8.27L51.93 8.27Q51.83 8.16 51.69 8.16L51.69 8.16L51.69 8.16Q51.39 8.16 51.02 8.38L51.02 8.38L51.02 8.38Q50.64 8.59 50.26 8.97L50.26 8.97L50.26 8.97Q49.89 9.35 49.56 9.86L49.56 9.86L49.56 9.86Q49.23 10.38 49.02 10.96Z" transform="rotate(0 24.579999923706055 12.545000076293945)"></path><defs id="SvgjsDefs1022"></defs></svg></g></svg>